<svg width="196" height="368" viewBox="0 0 196 368" fill="none" xmlns="http://www.w3.org/2000/svg">
<path d="M5.96484 0C15.2324 3.9236 23.9148 9.66093 31.4688 17.2148L67.8945 53.6406H67.8955L193.699 179.444L193.895 179.649C195.845 181.808 195.78 185.142 193.699 187.223V187.224L193.07 187.852L193.069 187.851C193.063 187.857 193.057 187.865 193.046 187.877C193.033 187.891 193.014 187.912 192.993 187.933L67.4883 313.438L67.4854 313.435L30.9971 349.924L30.2568 350.655C22.3004 358.413 13.1354 364.194 3.37793 368H0.5C11.0751 364.282 21.0213 358.262 29.5586 349.938L30.29 349.217L67.1318 312.374L67.4854 312.021L67.4883 312.023L192.286 187.226L192.356 187.15L192.363 187.144L192.992 186.516C194.694 184.813 194.747 182.086 193.151 180.319L192.992 180.151L67.4814 54.6406H67.4805L30.7617 17.9219C22.6872 9.84739 13.3073 3.8744 3.30176 0H5.96484Z" fill="#FDFDFF"/>
</svg>
