<svg width="25" height="24" viewBox="0 0 25 24" fill="none" xmlns="http://www.w3.org/2000/svg">
<path d="M12.5 20C10.2667 20 8.375 19.225 6.825 17.675C5.275 16.125 4.5 14.2333 4.5 12C4.5 9.76667 5.275 7.875 6.825 6.325C8.375 4.775 10.2667 4 12.5 4C13.65 4 14.75 4.23733 15.8 4.712C16.85 5.18667 17.75 5.866 18.5 6.75V4H20.5V11H13.5V9H17.7C17.1667 8.06667 16.4377 7.33333 15.513 6.8C14.5883 6.26667 13.584 6 12.5 6C10.8333 6 9.41667 6.58333 8.25 7.75C7.08333 8.91667 6.5 10.3333 6.5 12C6.5 13.6667 7.08333 15.0833 8.25 16.25C9.41667 17.4167 10.8333 18 12.5 18C13.7833 18 14.9417 17.6333 15.975 16.9C17.0083 16.1667 17.7333 15.2 18.15 14H20.25C19.7833 15.7667 18.8333 17.2083 17.4 18.325C15.9667 19.4417 14.3333 20 12.5 20Z" fill="black"/>
</svg>
