<svg width="343" height="50" viewBox="0 0 343 50" fill="none" xmlns="http://www.w3.org/2000/svg">
<rect width="343" height="50" rx="8" fill="#06BE34"/>
<g clip-path="url(#clip0_2_138)">
<path d="M129.5 17.5V32.5H123.793L118.204 24.9484V32.5H112.5V17.5H118.204L123.793 25.3551V17.5H129.5Z" fill="white"/>
</g>
<path d="M146.243 19.74H144.611V29.164H145.587C147.363 29.164 148.947 29.084 150.771 28.716L150.563 27.34C149.043 27.628 147.683 27.724 146.243 27.756V19.74ZM151.699 23.004H148.627V24.348H151.699V32.044H153.235V18.572H151.699V23.004ZM154.755 18.268V32.732H156.339V18.268H154.755ZM168.722 18.268V32.764H170.386V18.268H168.722ZM162.69 19.34C160.546 19.34 158.978 21.324 158.978 24.428C158.978 27.564 160.546 29.532 162.69 29.532C164.85 29.532 166.418 27.564 166.418 24.428C166.418 21.324 164.85 19.34 162.69 19.34ZM162.69 20.828C163.954 20.828 164.834 22.188 164.834 24.428C164.834 26.7 163.954 28.06 162.69 28.06C161.442 28.06 160.562 26.7 160.562 24.428C160.562 22.188 161.442 20.828 162.69 20.828ZM178.704 27.884H175.184V24.348H178.704V27.884ZM183.344 18.252V23.516H180.32V19.42H178.704V23.052H175.184V19.404H173.552V29.228H180.32V24.844H183.344V32.764H185.008V18.268L183.344 18.252ZM198.249 29.676V27.212H202.761V25.884H194.105V23.868H202.441V19.292H192.457V20.62H200.809V22.556H192.489V27.212H196.601V29.676H190.905V31.036H203.993V29.676H198.249ZM215.16 21.276C215.16 23.148 215.16 25.276 214.6 28.124L216.264 28.3C216.808 25.244 216.808 23.212 216.808 21.276V19.724H206.808V21.052H215.16V21.276ZM205.416 29.356V30.716H218.488V29.356H205.416ZM231.83 18.284H230.182V28.78H231.83V18.284ZM221.814 22.86C221.814 21.532 222.758 20.668 224.038 20.668C225.302 20.668 226.262 21.532 226.262 22.86C226.262 24.172 225.302 25.052 224.038 25.052C222.758 25.052 221.814 24.172 221.814 22.86ZM227.862 22.86C227.862 20.748 226.214 19.244 224.038 19.244C221.862 19.244 220.198 20.748 220.198 22.86C220.198 24.956 221.862 26.476 224.038 26.476C226.214 26.476 227.862 24.956 227.862 22.86ZM224.054 31.116V27.724H222.39V32.46H232.246V31.116H224.054Z" fill="white"/>
<defs>
<clipPath id="clip0_2_138">
<rect width="17" height="15" fill="white" transform="translate(112.5 17.5)"/>
</clipPath>
</defs>
</svg>
