<svg width="20" height="16" viewBox="0 0 20 16" fill="none" xmlns="http://www.w3.org/2000/svg">
<path fill-rule="evenodd" clip-rule="evenodd" d="M0 1.2C0 0.88174 0.098772 0.576515 0.274587 0.351472C0.450403 0.126428 0.68886 0 0.9375 0H19.0625C19.3111 0 19.5496 0.126428 19.7254 0.351472C19.9012 0.576515 20 0.88174 20 1.2C20 1.51826 19.9012 1.82348 19.7254 2.04853C19.5496 2.27357 19.3111 2.4 19.0625 2.4H0.9375C0.68886 2.4 0.450403 2.27357 0.274587 2.04853C0.098772 1.82348 0 1.51826 0 1.2ZM0 8C0 7.68174 0.098772 7.37652 0.274587 7.15147C0.450403 6.92643 0.68886 6.8 0.9375 6.8H19.0625C19.3111 6.8 19.5496 6.92643 19.7254 7.15147C19.9012 7.37652 20 7.68174 20 8C20 8.31826 19.9012 8.62348 19.7254 8.84853C19.5496 9.07357 19.3111 9.2 19.0625 9.2H0.9375C0.68886 9.2 0.450403 9.07357 0.274587 8.84853C0.098772 8.62348 0 8.31826 0 8ZM0.9375 13.6C0.68886 13.6 0.450403 13.7264 0.274587 13.9515C0.098772 14.1765 0 14.4817 0 14.8C0 15.1183 0.098772 15.4235 0.274587 15.6485C0.450403 15.8736 0.68886 16 0.9375 16H19.0625C19.3111 16 19.5496 15.8736 19.7254 15.6485C19.9012 15.4235 20 15.1183 20 14.8C20 14.4817 19.9012 14.1765 19.7254 13.9515C19.5496 13.7264 19.3111 13.6 19.0625 13.6H0.9375Z" fill="#121212"/>
</svg>
