<svg width="343" height="50" viewBox="0 0 343 50" fill="none" xmlns="http://www.w3.org/2000/svg">
<rect x="0.5" y="0.5" width="342" height="49" rx="7.5" fill="white"/>
<rect x="0.5" y="0.5" width="342" height="49" rx="7.5" stroke="black"/>
<path d="M129.553 21.6295C129.522 21.6502 129.488 21.673 129.454 21.6961C128.528 22.3277 127.834 23.1492 127.441 24.2111C127.209 24.8405 127.13 25.4929 127.171 26.1625C127.21 26.8038 127.354 27.4169 127.631 27.997C128.01 28.7929 128.579 29.4248 129.296 29.9251C129.542 30.0987 129.805 30.2479 130.079 30.3709C130.1 30.38 130.12 30.391 130.149 30.4061C130.128 30.4727 130.109 30.5373 130.087 30.6013C129.72 31.6816 129.208 32.7063 128.565 33.6468C128.263 34.0884 127.959 34.528 127.614 34.9371C127.382 35.2121 127.132 35.4687 126.852 35.6951C126.078 36.3203 125.211 36.4846 124.265 36.2119C123.977 36.1288 123.7 36.0071 123.423 35.8917C123.075 35.7468 122.727 35.6034 122.356 35.527C121.946 35.4424 121.533 35.4285 121.117 35.4606C120.544 35.5046 120.011 35.6914 119.489 35.9199C119.185 36.0528 118.88 36.1819 118.557 36.2593C118.172 36.3512 117.786 36.3993 117.392 36.3216C117.128 36.2696 116.882 36.171 116.65 36.0373C116.218 35.7896 115.86 35.4536 115.529 35.0857C115.115 34.6247 114.756 34.12 114.404 33.6109C113.439 32.2159 112.789 30.6796 112.375 29.0372C112.226 28.4438 112.12 27.8403 112.058 27.2315C111.992 26.5866 111.979 25.9402 112.035 25.2941C112.125 24.242 112.379 23.2347 112.906 22.3132C113.671 20.973 114.782 20.0619 116.272 19.6387C116.782 19.4933 117.313 19.4351 117.842 19.4664C118.228 19.4894 118.603 19.5769 118.966 19.7057C119.375 19.8508 119.777 20.0145 120.184 20.1621C120.413 20.2448 120.646 20.3168 120.88 20.3836C121.127 20.4544 121.379 20.4452 121.622 20.365C121.925 20.2652 122.225 20.1545 122.526 20.0461C122.908 19.9083 123.287 19.7564 123.673 19.6301C124.315 19.4181 124.994 19.3432 125.667 19.4101C126.407 19.4827 127.11 19.6714 127.769 20.0167C128.467 20.3821 129.045 20.8874 129.502 21.5326C129.517 21.5543 129.533 21.5765 129.547 21.5991C129.551 21.6044 129.55 21.613 129.553 21.6295Z" fill="black"/>
<path d="M125.51 14.0019C125.517 14.0653 125.527 14.1216 125.53 14.1782C125.56 14.75 125.487 15.3084 125.302 15.8498C124.942 16.9073 124.334 17.7847 123.415 18.4299C122.942 18.7619 122.426 18.9968 121.856 19.1062C121.591 19.1586 121.32 19.1748 121.051 19.1545C121.045 19.1201 121.037 19.0884 121.033 19.0556C120.981 18.5733 121.032 18.0981 121.176 17.6385C121.749 15.8011 122.968 14.6257 124.808 14.1025C124.994 14.0498 125.189 14.0336 125.381 14.0027C125.418 13.9971 125.456 14.0019 125.51 14.0019Z" fill="black"/>
<path d="M147.304 25.1C147.688 23.82 148.056 22.524 148.392 21.18H148.472C148.824 22.508 149.176 23.82 149.576 25.1L150.04 26.684H146.824L147.304 25.1ZM143.496 31.5H145.384L146.392 28.14H150.488L151.48 31.5H153.448L149.544 19.708H147.4L143.496 31.5ZM154.633 35.068H156.473V32.22L156.409 30.716C157.161 31.356 157.945 31.708 158.729 31.708C160.713 31.708 162.521 29.98 162.521 26.956C162.521 24.252 161.273 22.476 159.049 22.476C158.057 22.476 157.097 23.02 156.329 23.66H156.281L156.137 22.7H154.633V35.068ZM158.377 30.188C157.833 30.188 157.161 29.98 156.473 29.388V25.084C157.209 24.364 157.865 24.012 158.553 24.012C160.025 24.012 160.617 25.148 160.617 26.988C160.617 29.052 159.657 30.188 158.377 30.188ZM164.503 35.068H166.343V32.22L166.279 30.716C167.031 31.356 167.815 31.708 168.599 31.708C170.583 31.708 172.391 29.98 172.391 26.956C172.391 24.252 171.143 22.476 168.919 22.476C167.927 22.476 166.967 23.02 166.199 23.66H166.151L166.007 22.7H164.503V35.068ZM168.247 30.188C167.703 30.188 167.031 29.98 166.343 29.388V25.084C167.079 24.364 167.735 24.012 168.423 24.012C169.895 24.012 170.487 25.148 170.487 26.988C170.487 29.052 169.527 30.188 168.247 30.188ZM176.197 31.708C176.661 31.708 176.965 31.644 177.189 31.564L176.949 30.172C176.789 30.204 176.725 30.204 176.645 30.204C176.421 30.204 176.213 30.028 176.213 29.532V18.748H174.373V29.436C174.373 30.86 174.869 31.708 176.197 31.708ZM182.595 31.708C183.747 31.708 184.755 31.324 185.571 30.78L184.931 29.612C184.291 30.028 183.619 30.268 182.835 30.268C181.315 30.268 180.259 29.26 180.115 27.58H185.827C185.875 27.356 185.923 27.004 185.923 26.636C185.923 24.156 184.659 22.476 182.323 22.476C180.275 22.476 178.307 24.252 178.307 27.1C178.307 30.012 180.211 31.708 182.595 31.708ZM180.099 26.3C180.275 24.764 181.251 23.916 182.355 23.916C183.635 23.916 184.323 24.796 184.323 26.3H180.099ZM197.924 29.676V27.212H202.436V25.884H193.78V23.868H202.116V19.292H192.132V20.62H200.484V22.556H192.164V27.212H196.276V29.676H190.58V31.036H203.668V29.676H197.924ZM214.834 21.276C214.834 23.148 214.834 25.276 214.274 28.124L215.938 28.3C216.482 25.244 216.482 23.212 216.482 21.276V19.724H206.482V21.052H214.834V21.276ZM205.09 29.356V30.716H218.162V29.356H205.09ZM231.505 18.284H229.857V28.78H231.505V18.284ZM221.489 22.86C221.489 21.532 222.433 20.668 223.713 20.668C224.977 20.668 225.937 21.532 225.937 22.86C225.937 24.172 224.977 25.052 223.713 25.052C222.433 25.052 221.489 24.172 221.489 22.86ZM227.537 22.86C227.537 20.748 225.889 19.244 223.713 19.244C221.537 19.244 219.873 20.748 219.873 22.86C219.873 24.956 221.537 26.476 223.713 26.476C225.889 26.476 227.537 24.956 227.537 22.86ZM223.729 31.116V27.724H222.065V32.46H231.921V31.116H223.729Z" fill="black"/>
</svg>
