<svg width="343" height="50" viewBox="0 0 343 50" fill="none" xmlns="http://www.w3.org/2000/svg">
<rect width="343" height="50" rx="8" fill="#FFE920"/>
<path fill-rule="evenodd" clip-rule="evenodd" d="M121 31.7011C127.053 31.7011 131.96 27.8257 131.96 23.0452C131.96 18.2648 127.053 14.3894 121 14.3894C114.947 14.3894 110.04 18.2648 110.04 23.0452C110.04 25.9206 111.815 28.4686 114.547 30.0427C114.542 30.0639 114.537 30.086 114.531 30.109L113.545 34.1261C113.378 34.8044 113.295 35.1435 113.398 35.3189C113.473 35.4458 113.6 35.5333 113.746 35.558C113.946 35.592 114.233 35.3933 114.808 34.9959L119.258 31.917C119.416 31.8078 119.548 31.7165 119.655 31.6366C120.096 31.6792 120.545 31.7011 121 31.7011Z" fill="black"/>
<path d="M144.867 19.724V21.068H149.811C149.747 21.868 149.619 22.62 149.427 23.324L144.131 23.66L144.355 25.084L148.931 24.636C148.083 26.412 146.563 27.916 144.035 29.18L144.931 30.46C150.179 27.82 151.443 24.044 151.443 19.724H144.867ZM157.363 23.98H155.171V18.268H153.523V32.716H155.171V25.356H157.363V23.98ZM159.378 19.724V21.068H164.322C164.258 21.868 164.13 22.62 163.938 23.324L158.642 23.66L158.866 25.084L163.442 24.636C162.594 26.412 161.074 27.916 158.546 29.18L159.442 30.46C164.69 27.82 165.954 24.044 165.954 19.724H159.378ZM171.874 23.98H169.682V18.268H168.034V32.716H169.682V25.356H171.874V23.98ZM175.824 23.004C175.824 21.436 177.376 20.444 179.536 20.444C181.68 20.444 183.232 21.436 183.232 23.004C183.232 24.572 181.68 25.564 179.536 25.564C177.376 25.564 175.824 24.572 175.824 23.004ZM180.352 29.612V26.86C182.992 26.62 184.848 25.148 184.848 23.004C184.848 20.652 182.592 19.132 179.536 19.132C176.464 19.132 174.224 20.652 174.224 23.004C174.224 25.148 176.064 26.604 178.704 26.844V29.612H173.008V30.956H186.096V29.612H180.352ZM198.249 29.676V27.212H202.761V25.884H194.105V23.868H202.441V19.292H192.457V20.62H200.809V22.556H192.489V27.212H196.601V29.676H190.905V31.036H203.993V29.676H198.249ZM215.16 21.276C215.16 23.148 215.16 25.276 214.6 28.124L216.264 28.3C216.808 25.244 216.808 23.212 216.808 21.276V19.724H206.808V21.052H215.16V21.276ZM205.416 29.356V30.716H218.488V29.356H205.416ZM231.83 18.284H230.182V28.78H231.83V18.284ZM221.814 22.86C221.814 21.532 222.758 20.668 224.038 20.668C225.302 20.668 226.262 21.532 226.262 22.86C226.262 24.172 225.302 25.052 224.038 25.052C222.758 25.052 221.814 24.172 221.814 22.86ZM227.862 22.86C227.862 20.748 226.214 19.244 224.038 19.244C221.862 19.244 220.198 20.748 220.198 22.86C220.198 24.956 221.862 26.476 224.038 26.476C226.214 26.476 227.862 24.956 227.862 22.86ZM224.054 31.116V27.724H222.39V32.46H232.246V31.116H224.054Z" fill="black"/>
</svg>
